<svg width="12" height="12" viewBox="0 0 12 12" fill="none" xmlns="http://www.w3.org/2000/svg">
<path d="M6.27147 7.965L10.254 3.78525C10.3205 3.71551 10.3575 3.62285 10.3575 3.5265C10.3575 3.43015 10.3205 3.33749 10.254 3.26775L10.2495 3.26325C10.2172 3.22933 10.1784 3.20231 10.1354 3.18385C10.0924 3.16539 10.0461 3.15587 9.99935 3.15587C9.95255 3.15587 9.90625 3.16539 9.86325 3.18385C9.82025 3.20231 9.78145 3.22933 9.74922 3.26325L5.99922 7.19925L2.25073 3.26325C2.21849 3.22933 2.1797 3.20231 2.1367 3.18385C2.0937 3.16539 2.0474 3.15587 2.0006 3.15587C1.95381 3.15587 1.9075 3.16539 1.8645 3.18385C1.8215 3.20231 1.7827 3.22933 1.75048 3.26325L1.74597 3.26775C1.67949 3.33749 1.6424 3.43015 1.6424 3.5265C1.6424 3.62285 1.67949 3.71551 1.74597 3.78525L5.72847 7.965C5.7635 8.00176 5.80562 8.03102 5.85229 8.05102C5.89896 8.07101 5.9492 8.08133 5.99997 8.08133C6.05075 8.08133 6.10099 8.07101 6.14766 8.05102C6.19433 8.03102 6.23645 8.00176 6.27147 7.965Z" fill="#ECECEC"/>
</svg>
