<svg width="89" height="167" viewBox="0 0 89 167" fill="none" xmlns="http://www.w3.org/2000/svg">
<path opacity="0.4" d="M16.4755 164.135C23.8122 166.101 28.4304 166.138 31.1882 165.707C32.5658 165.491 33.4799 165.159 34.0384 164.891C34.3175 164.757 34.5092 164.639 34.626 164.559C34.6554 164.538 34.6799 164.52 34.7001 164.505C34.7075 164.487 34.7156 164.468 34.7245 164.447C34.7732 164.334 34.8459 164.165 34.9405 163.943C35.1298 163.5 35.4076 162.848 35.7638 162.01C36.4762 160.335 37.5004 157.918 38.7467 154.953C41.2392 149.023 44.6209 140.899 48.1758 132.127C55.2912 114.57 63.0857 94.4547 65.8594 84.103L75.261 49.0156L75.6074 48.983L79.4586 48.6238L88.0315 16.6294L82.2482 15.0797L80.7329 20.7347L77.5154 19.8726L79.0306 14.2176L77.7534 13.8754L76.2382 19.5304L73.0206 18.6682L74.5359 13.0132L73.2511 12.669L71.7359 18.324L68.5193 17.4621L70.0345 11.8071L68.7488 11.4626L67.2336 17.1176L64.0207 16.2567L65.536 10.6017L64.2503 10.2572L62.735 15.9122L59.5184 15.0503L61.0337 9.39532L59.7546 9.05259L58.2393 14.7076L55.0236 13.846L56.5389 8.19095L55.2532 7.84645L53.7379 13.5015L50.5213 12.6396L52.0366 6.98456L50.7537 6.64082L49.2385 12.2958L46.0228 11.4342L47.5381 5.77918L46.2571 5.43595L44.7418 11.091L41.5205 10.2278L43.0357 4.57279L41.7585 4.23057L40.2433 9.88557L37.0248 9.02318L38.54 3.36817L37.2562 3.02418L35.741 8.67918L32.5272 7.81805L34.0425 2.16305L28.2554 0.612408L19.6825 32.6068L22.8381 34.8435L23.1218 35.0449L19.6667 47.9396L9.94138 45.3337L2.36132 73.6229L8.70587 75.3229L13.7895 56.3506L17.1702 57.2565L13.7202 70.1323C10.9464 80.484 7.64068 101.802 5.02613 120.565C3.71985 129.94 2.58699 138.666 1.78113 145.048C1.37821 148.239 1.05721 150.844 0.836685 152.652C0.726436 153.555 0.641639 154.259 0.584137 154.737C0.555385 154.976 0.533736 155.159 0.519069 155.282C0.516329 155.305 0.512675 155.326 0.510439 155.344C0.520323 155.368 0.532673 155.395 0.547895 155.427C0.608613 155.555 0.714909 155.754 0.889407 156.009C1.23822 156.52 1.86266 157.264 2.94715 158.14C5.11803 159.892 9.1357 162.169 16.4755 164.135ZM0.47839 155.264L0.478643 155.263L0.477953 155.262L0.477515 155.26C0.477515 155.26 0.477119 155.261 0.4777 155.263L0.477194 155.265L0.47839 155.264ZM34.7717 164.449L34.7705 164.45L34.769 164.451L34.7688 164.452L34.7717 164.449ZM82.6456 25.3196L82.1968 25.2438C63.9787 22.152 46.2392 17.429 29.0002 10.9898L28.5748 10.8304L29.1033 8.85794L83.1744 23.3462L82.6456 25.3196Z" stroke="#CEA561"/>
</svg>
