<svg width="172" height="206" viewBox="0 0 172 206" fill="none" xmlns="http://www.w3.org/2000/svg">
<path opacity="0.2" d="M0.853456 21.8752C0.827942 21.8899 0.804924 21.906 0.782189 21.9197C1.00131 21.9673 1.29299 22.0124 1.65853 22.0509C2.16267 22.1039 2.77297 22.1455 3.46444 22.1866C6.20677 22.3496 10.1949 22.4964 13.3283 23.3319L13.3292 23.3315C19.611 25.0122 22.3497 27.4942 23.03 30.2001C23.7005 32.8678 22.2933 35.4939 20.9446 37.2893L20.9239 37.3159L20.9 37.3409C20.2906 37.9563 19.7309 38.5839 19.2266 39.2453L19.2059 39.2719L19.1824 39.2956C19.1774 39.3005 19.1719 39.3052 19.167 39.3101L18.8635 39.7278C13.1118 47.6378 13.3761 59.0611 19.2992 69.3203C26.9894 82.6399 41.0938 88.718 53.3236 81.6662C55.1382 80.6139 56.2916 79.8358 56.9859 79.324C57.3329 79.0682 57.5648 78.8794 57.7075 78.7574C57.7788 78.6965 57.8278 78.6522 57.8574 78.6246C57.8722 78.6109 57.8825 78.6011 57.8881 78.5957C57.8902 78.5936 57.8913 78.5919 57.8922 78.591L57.8927 78.5919C58.0941 78.382 58.3462 78.2029 58.5021 78.081C58.5329 78.0499 58.5831 78.0028 58.6432 77.9601C61.7062 75.506 66.1419 75.705 68.9214 78.6181L101.097 112.328L101.169 112.405L101.205 112.503C112.231 142.978 121.757 173.723 134.26 203.868C134.349 203.919 134.475 203.991 134.628 204.075C134.939 204.247 135.355 204.469 135.778 204.673C136.15 204.853 136.513 205.008 136.807 205.108L113.961 127.17L114.803 126.685L170.901 185.468C170.961 185.164 171.007 184.773 171.038 184.362C171.073 183.893 171.089 183.421 171.096 183.065C171.1 182.892 171.102 182.747 171.103 182.644C151.147 156.744 129.262 132.942 108.419 108.138L108.352 108.057L108.323 107.957L99.7329 78.6492L99.6933 78.5142L99.6965 78.5022L96.3843 67.2222L96.3846 67.2209L95.2782 63.4393L95.2774 63.4398C94.0415 59.2432 96.5166 54.9193 100.773 53.8438L100.777 53.8427C100.784 53.8407 100.797 53.8376 100.815 53.8321C100.852 53.8208 100.913 53.8014 100.999 53.7712C101.17 53.7107 101.442 53.6067 101.83 53.4369C102.604 53.0971 103.837 52.4942 105.644 51.4509C117.877 44.3975 119.654 29.1405 111.964 15.8203C104.272 2.49754 90.1697 -3.58548 77.9443 3.47271C65.8207 10.4723 61.9408 26.6515 69.1936 39.818C77.3317 54.3748 84.1742 69.2112 90.3346 84.2049L89.4762 84.7005C79.4293 71.7031 69.8764 58.2217 61.2547 43.8546L61.2551 43.8533C58.0366 38.7027 53.2719 35.2458 48.2782 32.6989C42.7726 29.891 34.5934 25.0596 25.8964 21.9891C17.1914 18.9158 8.13424 17.6716 0.853456 21.8752ZM103.547 108.291C104.702 107.625 106.182 108.018 106.848 109.172C107.514 110.326 107.115 111.805 105.961 112.471L105.957 112.473C104.812 113.122 103.34 112.738 102.666 111.591L102.664 111.588C101.998 110.433 102.404 108.951 103.547 108.291ZM79.9137 6.90145C85.1535 3.87628 90.6955 3.76939 95.7377 5.8484C100.767 7.92229 105.28 12.1601 108.536 17.7993C111.789 23.4329 113.205 29.4594 112.489 34.8527C111.771 40.2598 108.912 45.0087 103.672 48.0341C96.3643 52.2531 90.2826 52.7104 85.1863 50.6159C80.1202 48.5338 76.1335 43.971 72.9014 38.373L72.901 38.3722C66.3701 27.0434 69.4514 12.9422 79.9137 6.90145ZM27.5962 37.107C38.0656 31.0625 51.8232 35.4419 58.3549 46.7714L58.9456 47.8219C61.8216 53.0842 63.502 58.441 62.8202 63.529C62.0886 68.9884 58.6541 74.0251 51.3466 78.2441C46.1101 81.2673 40.5698 81.3678 35.5294 79.2853C30.5017 77.208 25.9897 72.969 22.7371 67.3354C19.4833 61.6997 18.0683 55.6729 18.7838 50.2811C19.5012 44.8759 22.3599 40.1303 27.5962 37.107Z" stroke="#CEA561"/>
</svg>
