<svg width="342" height="282" viewBox="0 0 342 282" fill="none" xmlns="http://www.w3.org/2000/svg">
<path opacity="0.32" d="M317.415 129.449C328.93 122.665 338.804 113.759 340.924 101.708L340.924 101.707C340.971 101.442 340.988 101.245 340.987 101.106C340.956 101.123 340.919 101.14 340.88 101.165C340.57 101.36 340.144 101.723 339.607 102.241C339.075 102.753 338.459 103.392 337.771 104.118C335.033 107.007 331.182 111.257 327.366 113.934L327.366 113.935C319.686 119.309 314.48 119.974 310.958 118.269C307.47 116.58 305.881 112.674 305.146 109.52L305.137 109.484L305.135 109.448C305.034 108.223 304.842 106.99 304.58 105.805L304.574 105.775L304.571 105.745C304.541 105.438 304.524 105.169 304.513 104.951L304.386 104.95C300.988 91.352 288.329 81.107 271.761 77.936L270.969 77.79C249.305 73.9628 229.565 83.5777 225.551 103.184L225.371 104.126C224.842 107.111 224.634 109.118 224.558 110.371C224.519 110.997 224.514 111.436 224.518 111.713C224.52 111.851 224.524 111.949 224.528 112.01C224.53 112.041 224.531 112.063 224.532 112.076L224.535 112.102L224.547 112.4C224.551 112.7 224.533 113 224.533 113.222C224.54 113.301 224.542 113.388 224.533 113.487L224.534 113.486C224.414 119.045 220.157 123.667 214.439 124.03L156.449 127.715L156.14 127.735L155.985 127.467C131.722 85.5911 109.867 42.7953 83.6435 1.72081C83.6242 1.71386 83.6034 1.7063 83.5809 1.69825C83.4397 1.64755 83.2372 1.57532 82.993 1.49189C82.5039 1.32476 81.8513 1.11137 81.1926 0.924865C80.5285 0.736852 79.8797 0.58322 79.3904 0.524868C79.3094 0.51521 79.2364 0.50945 79.1715 0.505602L131.575 106.205L142.325 127.901L142.659 128.575L141.91 128.622L118.454 130.119L0.657573 137.578C0.692952 137.631 0.734117 137.691 0.782512 137.756C1.07658 138.149 1.53438 138.633 2.02979 139.113C2.52115 139.589 3.03379 140.047 3.42389 140.386C3.6185 140.555 3.78179 140.695 3.89654 140.792C3.91504 140.807 3.93232 140.822 3.94819 140.835C52.4265 142.897 100.326 140.634 148.383 140.729L148.693 140.73L148.831 141.006L164.064 171.749C164.072 171.762 164.083 171.774 164.091 171.789C164.108 171.819 164.12 171.85 164.13 171.879L171.741 187.234L174.276 192.336C177.033 197.888 174.643 204.529 168.998 207.058L168.997 207.059C168.995 207.06 168.991 207.061 168.986 207.064C168.975 207.069 168.956 207.078 168.929 207.091C168.876 207.118 168.792 207.162 168.674 207.228C168.439 207.36 168.071 207.579 167.557 207.921C166.658 208.518 165.31 209.489 163.438 211.024L162.603 211.717C146.866 224.937 148.229 247.261 162.592 264.379C176.952 281.502 198.717 286.723 214.465 273.509C229.791 260.646 231.419 237.036 218.377 220.045L217.745 219.242C197.462 194.396 180.26 168.27 164.316 141.617L163.855 140.847L164.753 140.86C196.42 141.349 228.159 143.175 260.123 148.279C268.892 149.505 277.223 147.44 284.703 144.273L284.704 144.272C292.918 140.802 305.907 136.229 317.415 129.449ZM155.167 135.657C154.264 137.221 152.274 137.747 150.712 136.846C149.149 135.943 148.618 133.959 149.52 132.397C150.426 130.828 152.407 130.303 153.969 131.205C155.53 132.106 156.073 134.087 155.167 135.657ZM212.485 222.522C224.587 236.944 223.755 257.655 210.493 268.78C203.853 274.348 196.065 275.862 188.429 274.169C180.806 272.48 173.356 267.601 167.323 260.416L167.322 260.416C161.295 253.227 157.784 245.04 157.442 237.239C157.1 229.424 159.942 222.017 166.577 216.453C175.874 208.655 184.343 206.521 192.037 208.216C199.699 209.905 206.483 215.367 212.485 222.522ZM298.724 117.064C295.725 134.113 278.191 145.2 259.659 141.929C250.463 140.306 242.34 137.16 237.046 131.368C231.896 125.732 229.494 117.672 231.263 106.308L231.447 105.198C232.958 96.6729 237.951 90.5098 244.888 86.8995C251.814 83.2957 260.657 82.2422 269.898 83.8649L269.899 83.8654C279.131 85.5012 287.084 89.5159 292.36 95.2709C297.647 101.036 300.232 108.536 298.724 117.063L298.724 117.064Z" stroke="#CEA561"/>
</svg>
