<svg width="159" height="204" viewBox="0 0 159 204" fill="none" xmlns="http://www.w3.org/2000/svg">
<path opacity="0.3" d="M143.363 198.491C150.744 191.883 151.369 180.53 144.746 173.158L144.743 173.155C144.469 172.844 144.023 172.407 143.635 172.039C143.443 171.857 143.269 171.695 143.143 171.579C143.08 171.521 143.028 171.474 142.993 171.442C142.976 171.426 142.962 171.414 142.953 171.405C108.425 144 77.5803 114.806 46.8632 79.213L46.5068 78.8009L46.9482 78.4818C49.509 76.6291 51.8419 74.9112 53.8697 73.4895L53.8715 73.4883C56.3812 71.7422 61.8364 68.1309 66.6579 64.9607C69.0701 63.3747 71.3264 61.8977 72.979 60.8171C73.8051 60.2768 74.4805 59.8352 74.9494 59.5291C75.1835 59.3763 75.3662 59.2572 75.4904 59.1762C75.5525 59.1356 75.6009 59.1045 75.6329 59.0836C75.6487 59.0733 75.6608 59.0657 75.6688 59.0604C75.6728 59.0578 75.6759 59.0557 75.6779 59.0544C75.679 59.0537 75.6797 59.0527 75.6802 59.0524L75.9539 59.4709L75.6807 59.0515L75.9079 58.9041L76.156 59.0135L86.0282 63.3714L157.871 18.6952C157.305 13.631 156.201 9.42221 154.393 6.31375C152.592 3.21747 150.097 1.21793 146.713 0.529934L74.6798 45.3242C74.6363 45.4115 74.5719 45.5341 74.4839 45.687C74.3043 45.9993 74.0255 46.4382 73.6226 46.9601C72.8163 48.0044 71.5133 49.3806 69.5134 50.7434L69.512 50.7438C68.3008 51.5636 63.6327 54.5411 57.8257 58.2782C52.0116 62.0198 45.0439 66.5307 39.2164 70.4263L38.9625 70.5966L38.6954 70.448C35.7921 68.8338 32.0875 69.1087 29.488 71.4367C26.905 73.7455 26.2055 77.3315 27.4401 80.3704L27.4852 80.4799L27.4763 80.5988L27.4395 80.9046C27.2044 82.4321 26.1425 83.9448 24.3485 85.3287C22.5479 86.7177 19.961 88.0179 16.5609 89.1162L15.8697 89.3328C12.1678 90.4651 7.41287 90.8134 4.13183 91.1282C3.30574 91.2075 2.5749 91.2846 1.97126 91.3704C1.39892 91.4518 0.971716 91.5398 0.692431 91.6323C0.768204 91.6819 0.863211 91.7387 0.981539 91.8015C10.5692 96.8936 21.5598 93.7442 31.681 88.3218L32.0906 88.1027L32.3387 88.4951C56.0602 125.941 84.2866 159.461 118.04 197.098L118.052 197.112L118.196 197.276C118.361 197.457 118.58 197.681 118.783 197.884C118.916 198.017 119.037 198.137 119.125 198.223C119.17 198.266 119.207 198.301 119.231 198.325C119.244 198.337 119.253 198.346 119.259 198.352C119.263 198.355 119.265 198.357 119.267 198.359L119.268 198.361L119.269 198.361C125.991 204.535 136.432 204.708 143.362 198.492L143.363 198.491ZM39.622 81.5579C38.4099 83.6572 35.7087 84.3919 33.6022 83.1759C31.4866 81.9545 30.77 79.2475 31.9825 77.1473C33.2029 75.0337 35.9049 74.2991 38.0216 75.5212C40.1291 76.7382 40.8416 79.4451 39.622 81.5579Z" stroke="#CEA561"/>
</svg>
