<svg width="22" height="22" viewBox="0 0 22 22" fill="none" xmlns="http://www.w3.org/2000/svg">
<path d="M18.6667 18.6667L14.8062 14.8062M14.8062 14.8062C15.4666 14.1459 15.9904 13.3619 16.3478 12.4992C16.7051 11.6364 16.8891 10.7117 16.8891 9.77778C16.8891 8.84392 16.7051 7.91919 16.3478 7.05641C15.9904 6.19363 15.4666 5.40968 14.8062 4.74934C14.1459 4.08899 13.362 3.56518 12.4992 3.2078C11.6364 2.85042 10.7117 2.66648 9.7778 2.66648C8.84393 2.66648 7.9192 2.85042 7.05642 3.2078C6.19364 3.56518 5.4097 4.08899 4.74935 4.74934C3.41573 6.08296 2.6665 7.89175 2.6665 9.77778C2.6665 11.6638 3.41573 13.4726 4.74935 14.8062C6.08298 16.1399 7.89176 16.8891 9.7778 16.8891C11.6638 16.8891 13.4726 16.1399 14.8062 14.8062Z" stroke="#151515" stroke-linecap="round" stroke-linejoin="round"/>
</svg>
