<svg width="22" height="22" viewBox="0 0 22 22" fill="none" xmlns="http://www.w3.org/2000/svg">
<path d="M14.2223 16C14.6938 16 15.1459 16.1873 15.4793 16.5207C15.8127 16.8541 16 17.3063 16 17.7778C16 18.2493 15.8127 18.7015 15.4793 19.0349C15.1459 19.3683 14.6938 19.5556 14.2223 19.5556C13.7508 19.5556 13.2986 19.3683 12.9652 19.0349C12.6318 18.7015 12.4445 18.2493 12.4445 17.7778C12.4445 17.3063 12.6318 16.8541 12.9652 16.5207C13.2986 16.1873 13.7508 16 14.2223 16ZM14.2223 16.8889C13.9865 16.8889 13.7604 16.9826 13.5937 17.1493C13.427 17.316 13.3334 17.542 13.3334 17.7778C13.3334 18.0135 13.427 18.2396 13.5937 18.4063C13.7604 18.573 13.9865 18.6667 14.2223 18.6667C14.458 18.6667 14.6841 18.573 14.8508 18.4063C15.0175 18.2396 15.1111 18.0135 15.1111 17.7778C15.1111 17.542 15.0175 17.316 14.8508 17.1493C14.6841 16.9826 14.458 16.8889 14.2223 16.8889ZM6.22225 16C6.69375 16 7.14593 16.1873 7.47933 16.5207C7.81273 16.8541 8.00003 17.3063 8.00003 17.7778C8.00003 18.2493 7.81273 18.7015 7.47933 19.0349C7.14593 19.3683 6.69375 19.5556 6.22225 19.5556C5.75076 19.5556 5.29857 19.3683 4.96517 19.0349C4.63178 18.7015 4.44447 18.2493 4.44447 17.7778C4.44447 17.3063 4.63178 16.8541 4.96517 16.5207C5.29857 16.1873 5.75076 16 6.22225 16ZM6.22225 16.8889C5.98651 16.8889 5.76041 16.9826 5.59371 17.1493C5.42701 17.316 5.33336 17.542 5.33336 17.7778C5.33336 18.0135 5.42701 18.2396 5.59371 18.4063C5.76041 18.573 5.98651 18.6667 6.22225 18.6667C6.458 18.6667 6.68409 18.573 6.85079 18.4063C7.01749 18.2396 7.11114 18.0135 7.11114 17.7778C7.11114 17.542 7.01749 17.316 6.85079 17.1493C6.68409 16.9826 6.458 16.8889 6.22225 16.8889ZM16 5.33334H3.79558L6.06225 10.6667H13.3334C13.6267 10.6667 13.8845 10.5245 14.0445 10.3111L16.7112 6.75556C16.8267 6.60445 16.8889 6.41778 16.8889 6.22223C16.8889 5.98648 16.7953 5.76039 16.6286 5.59369C16.4619 5.42699 16.2358 5.33334 16 5.33334ZM13.3334 11.5556H6.1067L5.42225 12.9422L5.33336 13.3333C5.33336 13.5691 5.42701 13.7952 5.59371 13.9619C5.76041 14.1286 5.98651 14.2222 6.22225 14.2222H16V15.1111H6.22225C5.75076 15.1111 5.29857 14.9238 4.96517 14.5904C4.63178 14.257 4.44447 13.8048 4.44447 13.3333C4.44421 13.0317 4.52068 12.735 4.6667 12.4711L5.3067 11.1645L2.08003 3.55556H0.888916V2.66667H2.6667L3.42225 4.44445H16C16.4715 4.44445 16.9237 4.63175 17.2571 4.96515C17.5905 5.29854 17.7778 5.75073 17.7778 6.22223C17.7778 6.66667 17.6267 7.04 17.3778 7.34223L14.7911 10.8C14.4711 11.2533 13.9378 11.5556 13.3334 11.5556Z" fill="#151515"/>
</svg>
